<svg width="178" height="59" viewBox="0 0 178 59" fill="none" xmlns="http://www.w3.org/2000/svg">
<path d="M163.825 6.20503e-05H14.1828C13.6373 6.20503e-05 13.0984 6.20504e-05 12.5544 0.00301205C12.099 0.00596205 11.6472 0.0145318 11.1875 0.0217446C10.1886 0.0333997 9.19215 0.120535 8.20667 0.282392C7.22258 0.447773 6.26931 0.759563 5.37912 1.20722C4.49001 1.65866 3.67761 2.24526 2.97138 2.94574C2.26145 3.64425 1.66966 4.45164 1.21878 5.33685C0.766657 6.2203 0.453152 7.167 0.289095 8.14425C0.123479 9.12026 0.0343588 10.1075 0.0225356 11.0972C0.00873161 11.5494 0.00727386 12.0032 0 12.4555V46.549C0.00727386 47.007 0.00873161 47.4507 0.0225356 47.9088C0.0343624 48.8984 0.123482 49.8856 0.289095 50.8616C0.452699 51.8394 0.766222 52.7867 1.21878 53.6704C1.66946 54.5528 2.26132 55.3569 2.97138 56.0515C3.67493 56.7551 4.48786 57.3421 5.37912 57.7901C6.26931 58.239 7.22247 58.5526 8.20667 58.7206C9.19232 58.8811 10.1887 58.9683 11.1875 58.9813C11.6472 58.9914 12.099 58.9971 12.5544 58.9971C13.0984 59.0001 13.6374 59.0001 14.1828 59.0001H163.825C164.36 59.0001 164.903 59.0001 165.438 58.9971C165.891 58.9971 166.356 58.9914 166.809 58.9813C167.806 58.969 168.8 58.8818 169.784 58.7206C170.771 58.5514 171.728 58.2379 172.622 57.7901C173.513 57.3419 174.325 56.7549 175.028 56.0515C175.736 55.3542 176.329 54.5507 176.786 53.6704C177.235 52.786 177.545 51.8389 177.707 50.8616C177.872 49.8855 177.965 48.8985 177.983 47.9088C177.988 47.4507 177.988 47.007 177.988 46.549C178 46.0131 178 45.4802 178 44.9356V14.0659C178 13.5257 178 12.9899 177.988 12.4555C177.988 12.0032 177.988 11.5494 177.983 11.0971C177.965 10.1074 177.872 9.12034 177.707 8.14419C177.545 7.1675 177.234 6.22088 176.786 5.33679C175.867 3.56248 174.411 2.1182 172.622 1.20708C171.728 0.760524 170.771 0.448817 169.784 0.282259C168.801 0.119689 167.806 0.0325235 166.809 0.0215381C166.356 0.0143401 165.891 0.00569655 165.438 0.0028203C164.903 -0.0001297 164.36 -0.0001297 163.825 -0.0001297V6.20503e-05Z" fill="#A6A6A6"/>
<path d="M12.5617 57.7094C12.1085 57.7094 11.6662 57.7036 11.2165 57.6936C10.2851 57.6816 9.35573 57.6011 8.43621 57.453C7.5788 57.3066 6.7482 57.0342 5.97181 56.6449C5.20254 56.2587 4.5009 55.7524 3.89378 55.1454C3.27786 54.5455 2.76509 53.8497 2.37577 53.0855C1.98216 52.3165 1.70976 51.4921 1.56806 50.6412C1.41503 49.7268 1.33224 48.8023 1.32039 47.8755C1.31096 47.5645 1.29861 46.5287 1.29861 46.5287V12.4554C1.29861 12.4554 1.31176 11.4356 1.32047 11.136C1.33181 10.2107 1.41412 9.28756 1.56669 8.37465C1.70866 7.52139 1.98127 6.69465 2.37509 5.92305C2.76297 5.15947 3.2729 4.46314 3.8851 3.86108C4.49662 3.25329 5.2005 2.74439 5.97108 2.35293C6.74569 1.96484 7.57472 1.69438 8.43039 1.55062C9.35293 1.40101 10.2855 1.32012 11.2202 1.30863L12.5624 1.29062H165.43L166.789 1.30936C167.715 1.32027 168.639 1.40044 169.553 1.54918C170.417 1.69474 171.255 1.96708 172.038 2.35726C173.582 3.14615 174.838 4.39427 175.631 5.92665C176.018 6.69293 176.287 7.51292 176.427 8.35881C176.581 9.27921 176.668 10.2096 176.685 11.1424C176.69 11.5602 176.69 12.0089 176.69 12.4554C176.701 13.0085 176.701 13.535 176.701 14.0658V44.9356C176.701 45.4714 176.701 45.9943 176.69 46.5215C176.69 47.0012 176.69 47.4406 176.684 47.8928C176.667 48.809 176.582 49.7228 176.43 50.6267C176.291 51.4838 176.02 52.3146 175.626 53.09C175.234 53.8458 174.725 54.5356 174.116 55.1339C173.508 55.7442 172.805 56.2535 172.034 56.6421C171.253 57.0344 170.416 57.3078 169.553 57.453C168.634 57.6019 167.704 57.6823 166.773 57.6936C166.337 57.7036 165.881 57.7094 165.438 57.7094L163.825 57.7123L12.5617 57.7094Z" fill="black"/>
<path d="M36.8436 29.9431C36.8596 28.712 37.1894 27.5049 37.8023 26.4341C38.4152 25.3633 39.2913 24.4636 40.349 23.8188C39.6771 22.8672 38.7906 22.0841 37.76 21.5316C36.7294 20.9791 35.5831 20.6726 34.4122 20.6362C31.9143 20.3762 29.4927 22.1183 28.2199 22.1183C26.9224 22.1183 24.9626 20.662 22.8522 20.7051C21.4872 20.7488 20.1569 21.1424 18.9908 21.8476C17.8248 22.5527 16.8629 23.5453 16.1988 24.7287C13.322 29.6676 15.4678 36.9262 18.2236 40.9184C19.6023 42.8733 21.2137 45.057 23.3222 44.9795C25.3854 44.8947 26.156 43.6749 28.6465 43.6749C31.1139 43.6749 31.8369 44.9795 33.9881 44.9303C36.2021 44.8947 37.597 42.9667 38.9274 40.9933C39.918 39.6004 40.6803 38.0609 41.186 36.4319C39.8997 35.8924 38.8021 34.9895 38.0299 33.8356C37.2577 32.6817 36.8451 31.3279 36.8436 29.9431V29.9431Z" fill="white"/>
<path d="M32.7803 18.0116C33.9875 16.5746 34.5822 14.7277 34.4382 12.8629C32.5939 13.055 30.8904 13.929 29.6669 15.3108C29.0687 15.9859 28.6106 16.7712 28.3187 17.622C28.0267 18.4727 27.9068 19.3721 27.9656 20.2689C28.8881 20.2783 29.8007 20.08 30.6347 19.689C31.4686 19.298 32.2023 18.7245 32.7803 18.0116Z" fill="white"/>
<path d="M62.9245 40.031H55.8836L54.1927 44.9818H51.2104L57.8795 26.6652H60.978L67.647 44.9818H64.6139L62.9245 40.031ZM56.6128 37.7465H62.1939L59.4426 29.7118H59.3656L56.6128 37.7465Z" fill="white"/>
<path d="M82.0499 38.305C82.0499 42.4549 79.8099 45.1211 76.4296 45.1211C75.5734 45.1655 74.7218 44.97 73.9724 44.5568C73.223 44.1435 72.6061 43.5294 72.1923 42.7847H72.1283V49.3992H69.364V31.6272H72.0398V33.8483H72.0906C72.5234 33.1072 73.1507 32.4963 73.9058 32.0805C74.6609 31.6648 75.5156 31.4599 76.3788 31.4875C79.7968 31.4875 82.0499 34.1667 82.0499 38.305ZM79.2085 38.305C79.2085 35.6013 77.7995 33.8238 75.6496 33.8238C73.5374 33.8238 72.1168 35.6388 72.1168 38.305C72.1168 40.9957 73.5374 42.7977 75.6496 42.7977C77.7995 42.7977 79.2085 41.0332 79.2085 38.305Z" fill="white"/>
<path d="M96.8725 38.305C96.8725 42.4549 94.6326 45.1211 91.2523 45.1211C90.396 45.1655 89.5444 44.9699 88.795 44.5567C88.0456 44.1435 87.4287 43.5294 87.015 42.7847H86.951V49.3992H84.1866V31.6272H86.8624V33.8483H86.9132C87.346 33.1072 87.9733 32.4963 88.7284 32.0805C89.4835 31.6648 90.3382 31.4599 91.2014 31.4875C94.6195 31.4875 96.8725 34.1666 96.8725 38.305ZM94.0312 38.305C94.0312 35.6013 92.6221 33.8238 90.4722 33.8238C88.3601 33.8238 86.9394 35.6388 86.9394 38.305C86.9394 40.9957 88.3601 42.7977 90.4722 42.7977C92.6221 42.7977 94.0312 41.0332 94.0312 38.305H94.0312Z" fill="white"/>
<path d="M106.669 39.8784C106.874 41.6947 108.653 42.8874 111.085 42.8874C113.415 42.8874 115.092 41.6947 115.092 40.0569C115.092 38.6352 114.08 37.7839 111.687 37.2005L109.293 36.6287C105.901 35.8163 104.326 34.2433 104.326 31.6909C104.326 28.5306 107.103 26.3598 111.047 26.3598C114.951 26.3598 117.626 28.5306 117.716 31.6909H114.926C114.759 29.863 113.235 28.7596 111.008 28.7596C108.781 28.7596 107.257 29.876 107.257 31.5008C107.257 32.7957 108.231 33.5577 110.612 34.141L112.647 34.6365C116.437 35.5253 118.011 37.0349 118.011 39.714C118.011 43.1408 115.259 45.287 110.88 45.287C106.784 45.287 104.018 43.1912 103.839 39.8782L106.669 39.8784Z" fill="white"/>
<path d="M123.977 28.4684V31.6287H126.538V33.7994H123.977V41.1614C123.977 42.3051 124.49 42.8381 125.616 42.8381C125.92 42.8328 126.223 42.8117 126.525 42.7747V44.9324C126.019 45.0262 125.505 45.0687 124.99 45.0592C122.263 45.0592 121.2 44.0437 121.2 41.4538V33.7994H119.242V31.6287H121.2V28.4684H123.977Z" fill="white"/>
<path d="M128.021 38.3065C128.021 34.1048 130.517 31.4645 134.409 31.4645C138.313 31.4645 140.797 34.1047 140.797 38.3065C140.797 42.5198 138.326 45.1485 134.409 45.1485C130.492 45.1485 128.021 42.5197 128.021 38.3065ZM137.981 38.3065C137.981 35.4242 136.649 33.7231 134.409 33.7231C132.169 33.7231 130.838 35.4372 130.838 38.3065C130.838 41.2003 132.169 42.8885 134.409 42.8885C136.649 42.8885 137.981 41.2003 137.981 38.3065H137.981Z" fill="white"/>
<path d="M143.077 31.6271H145.713V33.9001H145.777C145.955 33.1902 146.375 32.5628 146.965 32.1234C147.555 31.684 148.279 31.4594 149.016 31.4873C149.335 31.4862 149.653 31.5205 149.963 31.5896V34.1536C149.561 34.0317 149.142 33.9758 148.721 33.9879C148.32 33.9718 147.919 34.042 147.548 34.1938C147.176 34.3455 146.842 34.5752 146.568 34.8671C146.295 35.159 146.088 35.5062 145.962 35.8847C145.837 36.2633 145.795 36.6644 145.841 37.0604V44.9813H143.076L143.077 31.6271Z" fill="white"/>
<path d="M162.709 41.0606C162.337 43.4848 159.956 45.1485 156.91 45.1485C152.992 45.1485 150.56 42.5457 150.56 38.3699C150.56 34.1811 153.005 31.4645 156.794 31.4645C160.52 31.4645 162.863 34.0025 162.863 38.0515V38.9907H153.351V39.1563C153.307 39.6478 153.369 40.1429 153.533 40.6088C153.697 41.0747 153.959 41.5006 154.302 41.8584C154.644 42.2161 155.06 42.4975 155.52 42.6838C155.981 42.8701 156.477 42.9571 156.974 42.9389C157.627 42.9996 158.283 42.8496 158.843 42.5112C159.403 42.1727 159.839 41.664 160.084 41.0606L162.709 41.0606ZM153.364 37.0749H160.097C160.122 36.633 160.054 36.1908 159.899 35.776C159.743 35.3612 159.502 34.9828 159.192 34.6646C158.882 34.3463 158.509 34.0951 158.096 33.9266C157.683 33.7581 157.24 33.6761 156.794 33.6856C156.344 33.6829 155.897 33.7687 155.481 33.9379C155.064 34.1072 154.686 34.3566 154.367 34.6717C154.048 34.9868 153.795 35.3614 153.623 35.7739C153.451 36.1864 153.363 36.6286 153.364 37.0749V37.0749Z" fill="white"/>
<path d="M56.2664 12.8787C56.8459 12.8374 57.4275 12.9243 57.9691 13.1329C58.5107 13.3415 58.9989 13.6667 59.3984 14.085C59.7979 14.5034 60.0988 15.0044 60.2794 15.5521C60.46 16.0997 60.5158 16.6802 60.4427 17.2518C60.4427 20.0635 58.9102 21.6798 56.2664 21.6798H53.0604V12.8787H56.2664ZM54.439 20.4351H56.1124C56.5265 20.4596 56.941 20.3923 57.3255 20.238C57.7101 20.0837 58.0552 19.8463 58.3355 19.5431C58.6159 19.2399 58.8246 18.8785 58.9464 18.4852C59.0681 18.092 59.0999 17.6767 59.0395 17.2697C59.0955 16.8644 59.0605 16.4517 58.9369 16.0613C58.8132 15.6709 58.6041 15.3125 58.3243 15.0117C58.0446 14.7109 57.7012 14.4752 57.3188 14.3215C56.9364 14.1677 56.5244 14.0997 56.1124 14.1224H54.439V20.4351Z" fill="white"/>
<path d="M61.9999 18.3571C61.9578 17.9206 62.0082 17.4802 62.1478 17.0641C62.2873 16.6481 62.5131 16.2656 62.8105 15.9411C63.1079 15.6166 63.4704 15.3574 63.8748 15.18C64.2792 15.0025 64.7165 14.9109 65.1587 14.9109C65.6009 14.9109 66.0382 15.0025 66.4426 15.18C66.8469 15.3574 67.2095 15.6166 67.5069 15.9411C67.8043 16.2656 68.03 16.6481 68.1696 17.0641C68.3092 17.4802 68.3595 17.9206 68.3174 18.3571C68.3603 18.794 68.3106 19.235 68.1714 19.6517C68.0322 20.0684 67.8066 20.4517 67.5091 20.7768C67.2116 21.1019 66.8488 21.3617 66.444 21.5395C66.0392 21.7173 65.6014 21.8091 65.1587 21.8091C64.716 21.8091 64.2782 21.7173 63.8734 21.5395C63.4686 21.3617 63.1058 21.1019 62.8083 20.7768C62.5108 20.4517 62.2852 20.0684 62.146 19.6517C62.0068 19.235 61.957 18.794 61.9999 18.3571V18.3571ZM66.9578 18.3571C66.9578 16.9174 66.3055 16.0754 65.1609 16.0754C64.0118 16.0754 63.3654 16.9174 63.3654 18.3571C63.3654 19.8083 64.0119 20.6438 65.1609 20.6438C66.3056 20.6437 66.9578 19.8025 66.9578 18.3571H66.9578Z" fill="white"/>
<path d="M76.7151 21.6798H75.3438L73.9595 16.7881H73.8549L72.4763 21.6798H71.1181L69.2718 15.0379H70.6126L71.8125 20.106H71.9113L73.2884 15.0379H74.5565L75.9336 20.106H76.0382L77.2323 15.0379H78.5542L76.7151 21.6798Z" fill="white"/>
<path d="M80.107 15.0374H81.3795V16.0925H81.4783C81.6459 15.7136 81.9285 15.3959 82.2868 15.1838C82.6451 14.9717 83.0612 14.8757 83.4771 14.9092C83.803 14.8849 84.1303 14.9336 84.4346 15.0518C84.739 15.1699 85.0126 15.3545 85.2353 15.5917C85.4579 15.8289 85.6239 16.1128 85.7209 16.4223C85.8179 16.7318 85.8434 17.0589 85.7955 17.3795V21.6792H84.4736V17.7087C84.4736 16.6413 84.0059 16.1105 83.0283 16.1105C82.807 16.1003 82.5861 16.1377 82.3807 16.22C82.1754 16.3024 81.9904 16.4278 81.8385 16.5876C81.6866 16.7475 81.5713 16.9381 81.5006 17.1462C81.4299 17.3544 81.4055 17.5753 81.4289 17.7937V21.6792H80.107L80.107 15.0374Z" fill="white"/>
<path d="M87.9019 12.4452H89.2237V21.6798H87.9019V12.4452Z" fill="white"/>
<path d="M91.0613 18.3549C91.0192 17.9184 91.0696 17.4779 91.2093 17.0619C91.3489 16.6458 91.5746 16.2633 91.8721 15.9388C92.1695 15.6143 92.5321 15.355 92.9365 15.1776C93.3409 15.0002 93.7782 14.9086 94.2204 14.9086C94.6626 14.9086 95.1 15.0002 95.5044 15.1776C95.9088 15.355 96.2713 15.6143 96.5688 15.9388C96.8662 16.2633 97.092 16.6458 97.2316 17.0619C97.3712 17.4779 97.4216 17.9184 97.3795 18.3549C97.4224 18.7918 97.3726 19.2328 97.2333 19.6495C97.0941 20.0663 96.8684 20.4495 96.5709 20.7746C96.2734 21.0997 95.9106 21.3595 95.5058 21.5372C95.101 21.715 94.6632 21.8069 94.2204 21.8069C93.7777 21.8069 93.3399 21.715 92.9351 21.5372C92.5303 21.3595 92.1675 21.0997 91.8699 20.7746C91.5724 20.4495 91.3468 20.0663 91.2075 19.6495C91.0683 19.2328 91.0185 18.7918 91.0613 18.3549V18.3549ZM96.0191 18.3549C96.0191 16.9152 95.3669 16.0732 94.2222 16.0732C93.0732 16.0732 92.4268 16.9152 92.4268 18.3549C92.4268 19.8061 93.0733 20.6416 94.2222 20.6416C95.3669 20.6415 96.0191 19.8003 96.0191 18.3549H96.0191Z" fill="white"/>
<path d="M98.7712 19.8026C98.7712 18.607 99.6689 17.9178 101.262 17.8198L103.077 17.7161V17.1428C103.077 16.4413 102.609 16.0452 101.706 16.0452C100.968 16.0452 100.456 16.3139 100.31 16.7835H99.0297C99.1648 15.6426 100.247 14.9109 101.767 14.9109C103.446 14.9109 104.393 15.7398 104.393 17.1428V21.6809H103.12V20.7475H103.016C102.803 21.0823 102.505 21.3553 102.152 21.5385C101.798 21.7217 101.402 21.8086 101.004 21.7903C100.723 21.8193 100.438 21.7896 100.17 21.703C99.9007 21.6164 99.6531 21.4749 99.4428 21.2877C99.2324 21.1004 99.064 20.8715 98.9483 20.6157C98.8326 20.3599 98.7723 20.0829 98.7712 19.8026V19.8026ZM103.077 19.2351V18.6798L101.441 18.7835C100.519 18.8447 100.1 19.1558 100.1 19.7414C100.1 20.3391 100.623 20.687 101.342 20.687C101.553 20.7081 101.766 20.6871 101.968 20.625C102.171 20.5629 102.358 20.4611 102.52 20.3256C102.682 20.1902 102.815 20.0238 102.91 19.8364C103.006 19.6491 103.062 19.4446 103.077 19.2351V19.2351Z" fill="white"/>
<path d="M106.13 18.356C106.13 16.2573 107.218 14.9278 108.911 14.9278C109.329 14.9086 109.745 15.0081 110.108 15.2144C110.472 15.4207 110.769 15.7255 110.965 16.093H111.063V12.4452H112.385V21.6798H111.119V20.6304H111.014C110.803 20.9954 110.496 21.2964 110.125 21.5007C109.755 21.7049 109.334 21.8047 108.911 21.7892C107.207 21.7893 106.13 20.4597 106.13 18.356ZM107.496 18.356C107.496 19.7647 108.165 20.6124 109.285 20.6124C110.4 20.6124 111.088 19.7525 111.088 18.3618C111.088 16.9775 110.392 16.1053 109.285 16.1053C108.173 16.1053 107.496 16.9588 107.496 18.356H107.496Z" fill="white"/>
<path d="M117.854 18.3571C117.812 17.9206 117.863 17.4802 118.002 17.0641C118.142 16.6481 118.368 16.2656 118.665 15.9411C118.962 15.6166 119.325 15.3574 119.729 15.18C120.134 15.0025 120.571 14.9109 121.013 14.9109C121.455 14.9109 121.893 15.0025 122.297 15.18C122.701 15.3574 123.064 15.6166 123.361 15.9411C123.659 16.2656 123.885 16.6481 124.024 17.0641C124.164 17.4802 124.214 17.9206 124.172 18.3571C124.215 18.794 124.165 19.235 124.026 19.6517C123.887 20.0684 123.661 20.4517 123.364 20.7768C123.066 21.1019 122.703 21.3617 122.299 21.5395C121.894 21.7173 121.456 21.8091 121.013 21.8091C120.57 21.8091 120.133 21.7173 119.728 21.5395C119.323 21.3617 118.96 21.1019 118.663 20.7768C118.365 20.4517 118.14 20.0684 118.001 19.6517C117.861 19.235 117.812 18.794 117.854 18.3571V18.3571ZM122.812 18.3571C122.812 16.9174 122.16 16.0754 121.015 16.0754C119.866 16.0754 119.22 16.9174 119.22 18.3571C119.22 19.8083 119.866 20.6438 121.015 20.6438C122.16 20.6437 122.812 19.8025 122.812 18.3571Z" fill="white"/>
<path d="M125.946 15.0374H127.218V16.0925H127.317C127.484 15.7136 127.767 15.3959 128.125 15.1838C128.484 14.9717 128.9 14.8757 129.316 14.9092C129.642 14.8849 129.969 14.9336 130.273 15.0518C130.578 15.1699 130.851 15.3545 131.074 15.5917C131.297 15.8289 131.462 16.1128 131.559 16.4223C131.656 16.7318 131.682 17.0589 131.634 17.3795V21.6792H130.312V17.7087C130.312 16.6413 129.845 16.1105 128.867 16.1105C128.646 16.1003 128.425 16.1377 128.219 16.22C128.014 16.3024 127.829 16.4278 127.677 16.5876C127.525 16.7475 127.41 16.9381 127.339 17.1462C127.269 17.3544 127.244 17.5753 127.268 17.7937V21.6792H125.946V15.0374Z" fill="white"/>
<path d="M139.104 13.3843V15.0682H140.555V16.1723H139.104V19.5875C139.104 20.2833 139.393 20.5879 140.051 20.5879C140.219 20.5874 140.387 20.5773 140.555 20.5577V21.6495C140.317 21.6916 140.077 21.714 139.836 21.7165C138.366 21.7165 137.78 21.2037 137.78 19.9231V16.1722H136.717V15.0681H137.78V13.3843H139.104Z" fill="white"/>
<path d="M142.36 12.4452H143.671V16.1053H143.775C143.951 15.7228 144.241 15.4033 144.607 15.1904C144.972 14.9775 145.395 14.8815 145.818 14.9155C146.142 14.898 146.466 14.9517 146.767 15.0727C147.068 15.1937 147.338 15.3791 147.558 15.6156C147.779 15.8521 147.944 16.1339 148.041 16.4409C148.139 16.7479 148.168 17.0725 148.124 17.3916V21.6798H146.801V17.715C146.801 16.6541 146.303 16.1168 145.369 16.1168C145.142 16.0983 144.913 16.1293 144.699 16.2076C144.485 16.2858 144.291 16.4095 144.131 16.5698C143.97 16.7302 143.847 16.9235 143.769 17.1361C143.692 17.3487 143.662 17.5755 143.682 17.8007V21.6797H142.36L142.36 12.4452Z" fill="white"/>
<path d="M155.832 19.8854C155.653 20.4924 155.263 21.0175 154.733 21.3687C154.202 21.72 153.564 21.8751 152.93 21.8069C152.488 21.8184 152.05 21.7346 151.645 21.5613C151.239 21.3879 150.877 21.1292 150.582 20.803C150.288 20.4768 150.069 20.091 149.94 19.6724C149.811 19.2537 149.775 18.8123 149.836 18.3787C149.777 17.9437 149.813 17.5013 149.942 17.0814C150.07 16.6615 150.288 16.274 150.581 15.9449C150.874 15.6159 151.235 15.3531 151.639 15.1743C152.043 14.9955 152.481 14.9049 152.924 14.9087C154.788 14.9087 155.912 16.1713 155.912 18.2569V18.7143H151.182V18.7878C151.162 19.0315 151.192 19.2768 151.273 19.508C151.353 19.7393 151.482 19.9512 151.65 20.1304C151.818 20.3095 152.022 20.4519 152.248 20.5483C152.475 20.6448 152.719 20.6932 152.966 20.6905C153.282 20.7282 153.603 20.6717 153.886 20.5283C154.17 20.3849 154.404 20.1611 154.56 19.8853L155.832 19.8854ZM151.182 17.7449H154.565C154.582 17.522 154.552 17.2981 154.476 17.0876C154.4 16.877 154.281 16.6846 154.125 16.5225C153.97 16.3605 153.782 16.2325 153.574 16.1467C153.366 16.0609 153.142 16.0192 152.917 16.0243C152.688 16.0214 152.461 16.064 152.249 16.1495C152.038 16.235 151.845 16.3616 151.684 16.5219C151.522 16.6823 151.394 16.8731 151.308 17.0831C151.222 17.2932 151.179 17.5182 151.182 17.7449H151.182Z" fill="white"/>
</svg>
