<svg width="163" height="58" viewBox="0 0 163 58" fill="none" xmlns="http://www.w3.org/2000/svg">
<rect width="163" height="58" rx="10" fill="#8F5843"/>
<path d="M41.328 23.8H46.416C47.632 23.8 48.704 24.0347 49.632 24.504C50.5707 24.9627 51.296 25.6133 51.808 26.456C52.3307 27.2987 52.592 28.28 52.592 29.4C52.592 30.52 52.3307 31.5013 51.808 32.344C51.296 33.1867 50.5707 33.8427 49.632 34.312C48.704 34.7707 47.632 35 46.416 35H41.328V23.8ZM46.288 32.872C47.408 32.872 48.2987 32.5627 48.96 31.944C49.632 31.3147 49.968 30.4667 49.968 29.4C49.968 28.3333 49.632 27.4907 48.96 26.872C48.2987 26.2427 47.408 25.928 46.288 25.928H43.92V32.872H46.288ZM58.4668 35.128C57.5601 35.128 56.7441 34.9413 56.0188 34.568C55.3041 34.184 54.7441 33.656 54.3388 32.984C53.9334 32.312 53.7308 31.5493 53.7308 30.696C53.7308 29.8427 53.9334 29.08 54.3388 28.408C54.7441 27.736 55.3041 27.2133 56.0188 26.84C56.7441 26.456 57.5601 26.264 58.4668 26.264C59.3734 26.264 60.1841 26.456 60.8988 26.84C61.6134 27.2133 62.1734 27.736 62.5788 28.408C62.9841 29.08 63.1868 29.8427 63.1868 30.696C63.1868 31.5493 62.9841 32.312 62.5788 32.984C62.1734 33.656 61.6134 34.184 60.8988 34.568C60.1841 34.9413 59.3734 35.128 58.4668 35.128ZM58.4668 33.08C59.1068 33.08 59.6294 32.8667 60.0348 32.44C60.4508 32.0027 60.6588 31.4213 60.6588 30.696C60.6588 29.9707 60.4508 29.3947 60.0348 28.968C59.6294 28.5307 59.1068 28.312 58.4668 28.312C57.8268 28.312 57.2988 28.5307 56.8828 28.968C56.4668 29.3947 56.2588 29.9707 56.2588 30.696C56.2588 31.4213 56.4668 32.0027 56.8828 32.44C57.2988 32.8667 57.8268 33.08 58.4668 33.08ZM78.4448 26.392L75.3248 35H72.9248L70.9888 29.656L68.9888 35H66.5888L63.4848 26.392H65.8368L67.8688 32.216L69.9808 26.392H72.0928L74.1408 32.216L76.2368 26.392H78.4448ZM84.8371 26.264C85.9038 26.264 86.7625 26.584 87.4131 27.224C88.0745 27.864 88.4051 28.8133 88.4051 30.072V35H85.9091V30.456C85.9091 29.7733 85.7598 29.2667 85.4611 28.936C85.1625 28.5947 84.7305 28.424 84.1651 28.424C83.5358 28.424 83.0345 28.6213 82.6611 29.016C82.2878 29.4 82.1011 29.976 82.1011 30.744V35H79.6051V26.392H81.9891V27.4C82.3198 27.0373 82.7305 26.76 83.2211 26.568C83.7118 26.3653 84.2505 26.264 84.8371 26.264ZM90.6676 23.128H93.1636V35H90.6676V23.128ZM99.5761 35.128C98.6695 35.128 97.8535 34.9413 97.1281 34.568C96.4135 34.184 95.8535 33.656 95.4481 32.984C95.0428 32.312 94.8401 31.5493 94.8401 30.696C94.8401 29.8427 95.0428 29.08 95.4481 28.408C95.8535 27.736 96.4135 27.2133 97.1281 26.84C97.8535 26.456 98.6695 26.264 99.5761 26.264C100.483 26.264 101.293 26.456 102.008 26.84C102.723 27.2133 103.283 27.736 103.688 28.408C104.093 29.08 104.296 29.8427 104.296 30.696C104.296 31.5493 104.093 32.312 103.688 32.984C103.283 33.656 102.723 34.184 102.008 34.568C101.293 34.9413 100.483 35.128 99.5761 35.128ZM99.5761 33.08C100.216 33.08 100.739 32.8667 101.144 32.44C101.56 32.0027 101.768 31.4213 101.768 30.696C101.768 29.9707 101.56 29.3947 101.144 28.968C100.739 28.5307 100.216 28.312 99.5761 28.312C98.9361 28.312 98.4081 28.5307 97.9921 28.968C97.5761 29.3947 97.3681 29.9707 97.3681 30.696C97.3681 31.4213 97.5761 32.0027 97.9921 32.44C98.4081 32.8667 98.9361 33.08 99.5761 33.08ZM109.296 26.264C110.629 26.264 111.653 26.584 112.368 27.224C113.083 27.8533 113.44 28.808 113.44 30.088V35H111.104V33.928C110.635 34.728 109.76 35.128 108.48 35.128C107.819 35.128 107.243 35.016 106.752 34.792C106.272 34.568 105.904 34.2587 105.648 33.864C105.392 33.4693 105.264 33.0213 105.264 32.52C105.264 31.72 105.563 31.0907 106.16 30.632C106.768 30.1733 107.701 29.944 108.96 29.944H110.944C110.944 29.4 110.779 28.984 110.448 28.696C110.117 28.3973 109.621 28.248 108.96 28.248C108.501 28.248 108.048 28.3227 107.6 28.472C107.163 28.6107 106.789 28.8027 106.48 29.048L105.584 27.304C106.053 26.9733 106.613 26.7173 107.264 26.536C107.925 26.3547 108.603 26.264 109.296 26.264ZM109.104 33.448C109.531 33.448 109.909 33.352 110.24 33.16C110.571 32.9573 110.805 32.664 110.944 32.28V31.4H109.232C108.208 31.4 107.696 31.736 107.696 32.408C107.696 32.728 107.819 32.984 108.064 33.176C108.32 33.3573 108.667 33.448 109.104 33.448ZM124.561 23.128V35H122.177V34.008C121.558 34.7547 120.662 35.128 119.489 35.128C118.678 35.128 117.942 34.9467 117.281 34.584C116.63 34.2213 116.118 33.704 115.745 33.032C115.371 32.36 115.185 31.5813 115.185 30.696C115.185 29.8107 115.371 29.032 115.745 28.36C116.118 27.688 116.63 27.1707 117.281 26.808C117.942 26.4453 118.678 26.264 119.489 26.264C120.587 26.264 121.446 26.6107 122.065 27.304V23.128H124.561ZM119.921 33.08C120.55 33.08 121.073 32.8667 121.489 32.44C121.905 32.0027 122.113 31.4213 122.113 30.696C122.113 29.9707 121.905 29.3947 121.489 28.968C121.073 28.5307 120.55 28.312 119.921 28.312C119.281 28.312 118.753 28.5307 118.337 28.968C117.921 29.3947 117.713 29.9707 117.713 30.696C117.713 31.4213 117.921 32.0027 118.337 32.44C118.753 32.8667 119.281 33.08 119.921 33.08Z" fill="white"/>
</svg>
