<svg width="217" height="26" viewBox="0 0 217 26" fill="none" xmlns="http://www.w3.org/2000/svg">
<mask id="path-1-outside-1_2_19" maskUnits="userSpaceOnUse" x="0" y="0" width="217" height="26" fill="black">
<rect fill="white" width="217" height="26"/>
<path d="M16.3346 1H2C1.44771 1 1 1.44772 1 2V24C1 24.5523 1.44772 25 2 25H16.3346C21.7017 25 24.3852 22.2 24.3852 16.6V9.4C24.3852 3.8 21.7017 1 16.3346 1ZM20.5516 16.6C20.5516 20.0667 18.8903 21.8 15.5678 21.8H5.83364C5.28135 21.8 4.83364 21.3523 4.83364 20.8V5.2C4.83364 4.64772 5.28135 4.2 5.83364 4.2H15.5678C18.8903 4.2 20.5516 5.93333 20.5516 9.4V16.6Z"/>
<path d="M44.0147 15.1234C43.8457 14.9126 43.9958 14.6 44.266 14.6C48.6107 14.6 50.7831 12.3333 50.7831 7.8C50.7831 3.26667 48.6107 1 44.266 1H29.548C28.9958 1 28.548 1.44772 28.548 2V24C28.548 24.5523 28.9958 25 29.548 25H30.8482C31.8705 25 32.3817 24.4667 32.3817 23.4V15.6C32.3817 15.0477 32.8294 14.6 33.3817 14.6H38.6108C38.9141 14.6 39.201 14.7376 39.3908 14.9742L46.1508 23.4C47.0134 24.4667 47.9399 25 48.9622 25H49.8498C50.6888 25 51.1548 24.0291 50.63 23.3745L44.0147 15.1234ZM33.3817 11.4C32.8294 11.4 32.3817 10.9523 32.3817 10.4V5.2C32.3817 4.64772 32.8294 4.2 33.3817 4.2H43.4992C45.7994 4.2 46.9495 5.4 46.9495 7.8C46.9495 10.2 45.7994 11.4 43.4992 11.4H33.3817Z"/>
<path d="M56.9299 1H55.6298C55.0775 1 54.6298 1.44772 54.6298 2V23.4C54.6298 24.4667 55.1409 25 56.1632 25H57.4634C58.0157 25 58.4634 24.5523 58.4634 24V2.6C58.4634 1.53333 57.9522 1 56.9299 1Z"/>
<path d="M83.6301 1C82.6078 1 82.0967 1.53333 82.0967 2.6V17.1982C82.0967 18.1418 80.91 18.5603 80.318 17.8256L67.0623 1.37262C66.8725 1.137 66.5862 1 66.2836 1H63.9285C63.3762 1 62.9285 1.44772 62.9285 2V24C62.9285 24.5523 63.3762 25 63.9285 25H65.2287C66.251 25 66.7621 24.4667 66.7621 23.4V8.80179C66.7621 7.85824 67.9489 7.43966 68.5408 8.17441L81.7965 24.6274C81.9863 24.863 82.2726 25 82.5752 25H84.9303C85.4826 25 85.9303 24.5523 85.9303 24V2C85.9303 1.44772 85.4826 1 84.9303 1H83.6301Z"/>
<path d="M112.492 2.62659C113.018 1.97223 112.552 1 111.712 1H110.828C109.806 1 108.88 1.53333 108.017 2.6L101.257 11.0258C101.067 11.2624 100.78 11.4 100.477 11.4H95.2478C94.6955 11.4 94.2478 10.9523 94.2478 10.4V2.6C94.2478 1.53333 93.7366 1 92.7143 1H91.4141C90.8619 1 90.4141 1.44772 90.4141 2V24C90.4141 24.5523 90.8619 25 91.4141 25H92.7143C93.7366 25 94.2478 24.4667 94.2478 23.4V15.6C94.2478 15.0477 94.6955 14.6 95.2478 14.6H100.477C100.78 14.6 101.067 14.7376 101.257 14.9742L108.017 23.4C108.88 24.4667 109.806 25 110.828 25H111.712C112.552 25 113.018 24.0278 112.492 23.3734L104.655 13.6266C104.361 13.2607 104.361 12.7393 104.655 12.3734L112.492 2.62659Z"/>
<path d="M130.386 1.59172C130.225 1.23174 129.868 1 129.473 1H126.936C126.542 1 126.184 1.23174 126.023 1.59172L116.184 23.5917C115.888 24.2532 116.372 25 117.096 25H117.822C118.844 25 119.611 24.4667 120.09 23.4L121.615 19.9917C121.776 19.6317 122.133 19.4 122.527 19.4H133.882C134.276 19.4 134.634 19.6317 134.795 19.9917L136.319 23.4C136.798 24.4667 137.565 25 138.587 25H139.313C140.038 25 140.522 24.2532 140.226 23.5917L130.386 1.59172ZM124.829 16.2C124.104 16.2 123.62 15.4523 123.917 14.7907L127.292 7.26712C127.646 6.47954 128.764 6.47954 129.117 7.26712L132.492 14.7907C132.789 15.4523 132.305 16.2 131.58 16.2H124.829Z"/>
<path d="M165.518 14.2632C164.964 13.5807 164.89 12.1557 165.377 11.4237C166.021 10.4545 166.35 9.14892 166.35 7.5C166.35 3.16667 164.274 1 160.121 1H144.732C144.18 1 143.732 1.44772 143.732 2V24C143.732 24.5523 144.18 25 144.732 25H160.504C164.657 25 166.734 22.8333 166.734 18.5C166.734 16.6698 166.323 15.2548 165.518 14.2632ZM147.566 5.2C147.566 4.64772 148.013 4.2 148.566 4.2H159.066C161.367 4.2 162.517 5.4 162.517 7.8C162.517 10.2 161.367 11.4 159.066 11.4H148.566C148.013 11.4 147.566 10.9523 147.566 10.4V5.2ZM159.45 21.8H148.566C148.013 21.8 147.566 21.3523 147.566 20.8V15.6C147.566 15.0477 148.013 14.6 148.566 14.6H159.45C161.75 14.6 162.9 15.8 162.9 18.2C162.9 20.6 161.75 21.8 159.45 21.8Z"/>
<path d="M189.731 21.8H175.396C174.844 21.8 174.396 21.3523 174.396 20.8V2.6C174.396 1.53333 173.885 1 172.863 1H171.562C171.01 1 170.562 1.44772 170.562 2V24C170.562 24.5523 171.01 25 171.562 25H190.264C190.816 25 191.264 24.5523 191.264 24V23.4C191.264 22.3333 190.753 21.8 189.731 21.8Z"/>
<path d="M214.467 21.8H198.982C198.43 21.8 197.982 21.3523 197.982 20.8V15.6C197.982 15.0477 198.43 14.6 198.982 14.6H213.467C214.019 14.6 214.467 14.1523 214.467 13.6V12.4C214.467 11.8477 214.019 11.4 213.467 11.4H198.982C198.43 11.4 197.982 10.9523 197.982 10.4V5.2C197.982 4.64772 198.43 4.2 198.982 4.2H214.083C215.105 4.2 215.617 3.66667 215.617 2.6V2C215.617 1.44772 215.169 1 214.617 1H195.148C194.596 1 194.148 1.44772 194.148 2V24C194.148 24.5523 194.596 25 195.148 25H215C215.552 25 216 24.5523 216 24V23.4C216 22.3333 215.489 21.8 214.467 21.8Z"/>
</mask>
<path d="M16.3346 1H2C1.44771 1 1 1.44772 1 2V24C1 24.5523 1.44772 25 2 25H16.3346C21.7017 25 24.3852 22.2 24.3852 16.6V9.4C24.3852 3.8 21.7017 1 16.3346 1ZM20.5516 16.6C20.5516 20.0667 18.8903 21.8 15.5678 21.8H5.83364C5.28135 21.8 4.83364 21.3523 4.83364 20.8V5.2C4.83364 4.64772 5.28135 4.2 5.83364 4.2H15.5678C18.8903 4.2 20.5516 5.93333 20.5516 9.4V16.6Z" fill="#8F5843"/>
<path d="M44.0147 15.1234C43.8457 14.9126 43.9958 14.6 44.266 14.6C48.6107 14.6 50.7831 12.3333 50.7831 7.8C50.7831 3.26667 48.6107 1 44.266 1H29.548C28.9958 1 28.548 1.44772 28.548 2V24C28.548 24.5523 28.9958 25 29.548 25H30.8482C31.8705 25 32.3817 24.4667 32.3817 23.4V15.6C32.3817 15.0477 32.8294 14.6 33.3817 14.6H38.6108C38.9141 14.6 39.201 14.7376 39.3908 14.9742L46.1508 23.4C47.0134 24.4667 47.9399 25 48.9622 25H49.8498C50.6888 25 51.1548 24.0291 50.63 23.3745L44.0147 15.1234ZM33.3817 11.4C32.8294 11.4 32.3817 10.9523 32.3817 10.4V5.2C32.3817 4.64772 32.8294 4.2 33.3817 4.2H43.4992C45.7994 4.2 46.9495 5.4 46.9495 7.8C46.9495 10.2 45.7994 11.4 43.4992 11.4H33.3817Z" fill="#8F5843"/>
<path d="M56.9299 1H55.6298C55.0775 1 54.6298 1.44772 54.6298 2V23.4C54.6298 24.4667 55.1409 25 56.1632 25H57.4634C58.0157 25 58.4634 24.5523 58.4634 24V2.6C58.4634 1.53333 57.9522 1 56.9299 1Z" fill="#8F5843"/>
<path d="M83.6301 1C82.6078 1 82.0967 1.53333 82.0967 2.6V17.1982C82.0967 18.1418 80.91 18.5603 80.318 17.8256L67.0623 1.37262C66.8725 1.137 66.5862 1 66.2836 1H63.9285C63.3762 1 62.9285 1.44772 62.9285 2V24C62.9285 24.5523 63.3762 25 63.9285 25H65.2287C66.251 25 66.7621 24.4667 66.7621 23.4V8.80179C66.7621 7.85824 67.9489 7.43966 68.5408 8.17441L81.7965 24.6274C81.9863 24.863 82.2726 25 82.5752 25H84.9303C85.4826 25 85.9303 24.5523 85.9303 24V2C85.9303 1.44772 85.4826 1 84.9303 1H83.6301Z" fill="#8F5843"/>
<path d="M112.492 2.62659C113.018 1.97223 112.552 1 111.712 1H110.828C109.806 1 108.88 1.53333 108.017 2.6L101.257 11.0258C101.067 11.2624 100.78 11.4 100.477 11.4H95.2478C94.6955 11.4 94.2478 10.9523 94.2478 10.4V2.6C94.2478 1.53333 93.7366 1 92.7143 1H91.4141C90.8619 1 90.4141 1.44772 90.4141 2V24C90.4141 24.5523 90.8619 25 91.4141 25H92.7143C93.7366 25 94.2478 24.4667 94.2478 23.4V15.6C94.2478 15.0477 94.6955 14.6 95.2478 14.6H100.477C100.78 14.6 101.067 14.7376 101.257 14.9742L108.017 23.4C108.88 24.4667 109.806 25 110.828 25H111.712C112.552 25 113.018 24.0278 112.492 23.3734L104.655 13.6266C104.361 13.2607 104.361 12.7393 104.655 12.3734L112.492 2.62659Z" fill="#8F5843"/>
<path d="M130.386 1.59172C130.225 1.23174 129.868 1 129.473 1H126.936C126.542 1 126.184 1.23174 126.023 1.59172L116.184 23.5917C115.888 24.2532 116.372 25 117.096 25H117.822C118.844 25 119.611 24.4667 120.09 23.4L121.615 19.9917C121.776 19.6317 122.133 19.4 122.527 19.4H133.882C134.276 19.4 134.634 19.6317 134.795 19.9917L136.319 23.4C136.798 24.4667 137.565 25 138.587 25H139.313C140.038 25 140.522 24.2532 140.226 23.5917L130.386 1.59172ZM124.829 16.2C124.104 16.2 123.62 15.4523 123.917 14.7907L127.292 7.26712C127.646 6.47954 128.764 6.47954 129.117 7.26712L132.492 14.7907C132.789 15.4523 132.305 16.2 131.58 16.2H124.829Z" fill="#8F5843"/>
<path d="M165.518 14.2632C164.964 13.5807 164.89 12.1557 165.377 11.4237C166.021 10.4545 166.35 9.14892 166.35 7.5C166.35 3.16667 164.274 1 160.121 1H144.732C144.18 1 143.732 1.44772 143.732 2V24C143.732 24.5523 144.18 25 144.732 25H160.504C164.657 25 166.734 22.8333 166.734 18.5C166.734 16.6698 166.323 15.2548 165.518 14.2632ZM147.566 5.2C147.566 4.64772 148.013 4.2 148.566 4.2H159.066C161.367 4.2 162.517 5.4 162.517 7.8C162.517 10.2 161.367 11.4 159.066 11.4H148.566C148.013 11.4 147.566 10.9523 147.566 10.4V5.2ZM159.45 21.8H148.566C148.013 21.8 147.566 21.3523 147.566 20.8V15.6C147.566 15.0477 148.013 14.6 148.566 14.6H159.45C161.75 14.6 162.9 15.8 162.9 18.2C162.9 20.6 161.75 21.8 159.45 21.8Z" fill="#8F5843"/>
<path d="M189.731 21.8H175.396C174.844 21.8 174.396 21.3523 174.396 20.8V2.6C174.396 1.53333 173.885 1 172.863 1H171.562C171.01 1 170.562 1.44772 170.562 2V24C170.562 24.5523 171.01 25 171.562 25H190.264C190.816 25 191.264 24.5523 191.264 24V23.4C191.264 22.3333 190.753 21.8 189.731 21.8Z" fill="#8F5843"/>
<path d="M214.467 21.8H198.982C198.43 21.8 197.982 21.3523 197.982 20.8V15.6C197.982 15.0477 198.43 14.6 198.982 14.6H213.467C214.019 14.6 214.467 14.1523 214.467 13.6V12.4C214.467 11.8477 214.019 11.4 213.467 11.4H198.982C198.43 11.4 197.982 10.9523 197.982 10.4V5.2C197.982 4.64772 198.43 4.2 198.982 4.2H214.083C215.105 4.2 215.617 3.66667 215.617 2.6V2C215.617 1.44772 215.169 1 214.617 1H195.148C194.596 1 194.148 1.44772 194.148 2V24C194.148 24.5523 194.596 25 195.148 25H215C215.552 25 216 24.5523 216 24V23.4C216 22.3333 215.489 21.8 214.467 21.8Z" fill="#8F5843"/>
<path d="M16.3346 1H2C1.44771 1 1 1.44772 1 2V24C1 24.5523 1.44772 25 2 25H16.3346C21.7017 25 24.3852 22.2 24.3852 16.6V9.4C24.3852 3.8 21.7017 1 16.3346 1ZM20.5516 16.6C20.5516 20.0667 18.8903 21.8 15.5678 21.8H5.83364C5.28135 21.8 4.83364 21.3523 4.83364 20.8V5.2C4.83364 4.64772 5.28135 4.2 5.83364 4.2H15.5678C18.8903 4.2 20.5516 5.93333 20.5516 9.4V16.6Z" stroke="#8F5843" stroke-width="2" mask="url(#path-1-outside-1_2_19)"/>
<path d="M44.0147 15.1234C43.8457 14.9126 43.9958 14.6 44.266 14.6C48.6107 14.6 50.7831 12.3333 50.7831 7.8C50.7831 3.26667 48.6107 1 44.266 1H29.548C28.9958 1 28.548 1.44772 28.548 2V24C28.548 24.5523 28.9958 25 29.548 25H30.8482C31.8705 25 32.3817 24.4667 32.3817 23.4V15.6C32.3817 15.0477 32.8294 14.6 33.3817 14.6H38.6108C38.9141 14.6 39.201 14.7376 39.3908 14.9742L46.1508 23.4C47.0134 24.4667 47.9399 25 48.9622 25H49.8498C50.6888 25 51.1548 24.0291 50.63 23.3745L44.0147 15.1234ZM33.3817 11.4C32.8294 11.4 32.3817 10.9523 32.3817 10.4V5.2C32.3817 4.64772 32.8294 4.2 33.3817 4.2H43.4992C45.7994 4.2 46.9495 5.4 46.9495 7.8C46.9495 10.2 45.7994 11.4 43.4992 11.4H33.3817Z" stroke="#8F5843" stroke-width="2" mask="url(#path-1-outside-1_2_19)"/>
<path d="M56.9299 1H55.6298C55.0775 1 54.6298 1.44772 54.6298 2V23.4C54.6298 24.4667 55.1409 25 56.1632 25H57.4634C58.0157 25 58.4634 24.5523 58.4634 24V2.6C58.4634 1.53333 57.9522 1 56.9299 1Z" stroke="#8F5843" stroke-width="2" mask="url(#path-1-outside-1_2_19)"/>
<path d="M83.6301 1C82.6078 1 82.0967 1.53333 82.0967 2.6V17.1982C82.0967 18.1418 80.91 18.5603 80.318 17.8256L67.0623 1.37262C66.8725 1.137 66.5862 1 66.2836 1H63.9285C63.3762 1 62.9285 1.44772 62.9285 2V24C62.9285 24.5523 63.3762 25 63.9285 25H65.2287C66.251 25 66.7621 24.4667 66.7621 23.4V8.80179C66.7621 7.85824 67.9489 7.43966 68.5408 8.17441L81.7965 24.6274C81.9863 24.863 82.2726 25 82.5752 25H84.9303C85.4826 25 85.9303 24.5523 85.9303 24V2C85.9303 1.44772 85.4826 1 84.9303 1H83.6301Z" stroke="#8F5843" stroke-width="2" mask="url(#path-1-outside-1_2_19)"/>
<path d="M112.492 2.62659C113.018 1.97223 112.552 1 111.712 1H110.828C109.806 1 108.88 1.53333 108.017 2.6L101.257 11.0258C101.067 11.2624 100.78 11.4 100.477 11.4H95.2478C94.6955 11.4 94.2478 10.9523 94.2478 10.4V2.6C94.2478 1.53333 93.7366 1 92.7143 1H91.4141C90.8619 1 90.4141 1.44772 90.4141 2V24C90.4141 24.5523 90.8619 25 91.4141 25H92.7143C93.7366 25 94.2478 24.4667 94.2478 23.4V15.6C94.2478 15.0477 94.6955 14.6 95.2478 14.6H100.477C100.78 14.6 101.067 14.7376 101.257 14.9742L108.017 23.4C108.88 24.4667 109.806 25 110.828 25H111.712C112.552 25 113.018 24.0278 112.492 23.3734L104.655 13.6266C104.361 13.2607 104.361 12.7393 104.655 12.3734L112.492 2.62659Z" stroke="#8F5843" stroke-width="2" mask="url(#path-1-outside-1_2_19)"/>
<path d="M130.386 1.59172C130.225 1.23174 129.868 1 129.473 1H126.936C126.542 1 126.184 1.23174 126.023 1.59172L116.184 23.5917C115.888 24.2532 116.372 25 117.096 25H117.822C118.844 25 119.611 24.4667 120.09 23.4L121.615 19.9917C121.776 19.6317 122.133 19.4 122.527 19.4H133.882C134.276 19.4 134.634 19.6317 134.795 19.9917L136.319 23.4C136.798 24.4667 137.565 25 138.587 25H139.313C140.038 25 140.522 24.2532 140.226 23.5917L130.386 1.59172ZM124.829 16.2C124.104 16.2 123.62 15.4523 123.917 14.7907L127.292 7.26712C127.646 6.47954 128.764 6.47954 129.117 7.26712L132.492 14.7907C132.789 15.4523 132.305 16.2 131.58 16.2H124.829Z" stroke="#8F5843" stroke-width="2" mask="url(#path-1-outside-1_2_19)"/>
<path d="M165.518 14.2632C164.964 13.5807 164.89 12.1557 165.377 11.4237C166.021 10.4545 166.35 9.14892 166.35 7.5C166.35 3.16667 164.274 1 160.121 1H144.732C144.18 1 143.732 1.44772 143.732 2V24C143.732 24.5523 144.18 25 144.732 25H160.504C164.657 25 166.734 22.8333 166.734 18.5C166.734 16.6698 166.323 15.2548 165.518 14.2632ZM147.566 5.2C147.566 4.64772 148.013 4.2 148.566 4.2H159.066C161.367 4.2 162.517 5.4 162.517 7.8C162.517 10.2 161.367 11.4 159.066 11.4H148.566C148.013 11.4 147.566 10.9523 147.566 10.4V5.2ZM159.45 21.8H148.566C148.013 21.8 147.566 21.3523 147.566 20.8V15.6C147.566 15.0477 148.013 14.6 148.566 14.6H159.45C161.75 14.6 162.9 15.8 162.9 18.2C162.9 20.6 161.75 21.8 159.45 21.8Z" stroke="#8F5843" stroke-width="2" mask="url(#path-1-outside-1_2_19)"/>
<path d="M189.731 21.8H175.396C174.844 21.8 174.396 21.3523 174.396 20.8V2.6C174.396 1.53333 173.885 1 172.863 1H171.562C171.01 1 170.562 1.44772 170.562 2V24C170.562 24.5523 171.01 25 171.562 25H190.264C190.816 25 191.264 24.5523 191.264 24V23.4C191.264 22.3333 190.753 21.8 189.731 21.8Z" stroke="#8F5843" stroke-width="2" mask="url(#path-1-outside-1_2_19)"/>
<path d="M214.467 21.8H198.982C198.43 21.8 197.982 21.3523 197.982 20.8V15.6C197.982 15.0477 198.43 14.6 198.982 14.6H213.467C214.019 14.6 214.467 14.1523 214.467 13.6V12.4C214.467 11.8477 214.019 11.4 213.467 11.4H198.982C198.43 11.4 197.982 10.9523 197.982 10.4V5.2C197.982 4.64772 198.43 4.2 198.982 4.2H214.083C215.105 4.2 215.617 3.66667 215.617 2.6V2C215.617 1.44772 215.169 1 214.617 1H195.148C194.596 1 194.148 1.44772 194.148 2V24C194.148 24.5523 194.596 25 195.148 25H215C215.552 25 216 24.5523 216 24V23.4C216 22.3333 215.489 21.8 214.467 21.8Z" stroke="#8F5843" stroke-width="2" mask="url(#path-1-outside-1_2_19)"/>
</svg>
